<?xml version="1.0" encoding="UTF-8" standalone="no"?>
<svg
   xmlns:dc="http://purl.org/dc/elements/1.1/"
   xmlns:cc="http://creativecommons.org/ns#"
   xmlns:rdf="http://www.w3.org/1999/02/22-rdf-syntax-ns#"
   xmlns:svg="http://www.w3.org/2000/svg"
   xmlns="http://www.w3.org/2000/svg"
   xmlns:xlink="http://www.w3.org/1999/xlink"
   xml:space="preserve"
   style="enable-background:new 0 0 362 62.1;"
   viewBox="0 0 362 62.1"
   height="62.1px"
   width="362px"
   y="0px"
   x="0px"
   id="Calque_1"
   version="1.1"><metadata
   id="metadata145"><rdf:RDF><cc:Work
       rdf:about=""><dc:format>image/svg+xml</dc:format><dc:type
         rdf:resource="http://purl.org/dc/dcmitype/StillImage" /><dc:title></dc:title></cc:Work></rdf:RDF></metadata><defs
   id="defs143" />
<style
   id="style2"
   type="text/css">
	.st0{fill:#2B2D46;}
	.st1{fill:#E65014;}
	.st2{fill:#E5322C;}
	.st3{fill:#4797AC;}
	.st4{fill:#FFFFFF;}
	.st5{fill:#BA9271;}
</style>
<symbol
   viewBox="-209.9 -14.7 419.9 29.4"
   id="logo_uga_long">
	<path
   id="path4"
   d="M-207.4-6.5c-1.7,1.6-2.5,3.7-2.5,6.2v13.5h4.7V-0.1c0-1.3,0.4-2.4,1.2-3.2s1.8-1.2,3-1.2   c1.3,0,2.3,0.4,3.1,1.2s1.2,1.9,1.2,3.2v13.2h4.7V-0.4c0-2.5-0.8-4.6-2.5-6.2s-3.8-2.4-6.4-2.4C-203.6-8.9-205.8-8.1-207.4-6.5"
   class="st0" />
	<path
   id="path6"
   d="M-173.6,6.7c1.1-1.3,1.6-3,1.6-5.1V-8.5h-4.5v9.4c0,2.5-1,3.7-2.9,3.7c-0.8,0-1.4-0.2-2-0.5s-1-0.9-1.3-1.5   c-0.3-0.7-0.4-1.4-0.4-2.3v-8.7h-4.5V8.2h3.1l0.9-2.1c0.3,0.4,0.7,0.7,1.1,1c0.4,0.3,0.8,0.6,1.3,0.8s1,0.4,1.5,0.5   c0.5,0.1,1.1,0.2,1.6,0.2C-176.1,8.6-174.6,7.9-173.6,6.7"
   class="st0" />
	<path
   id="path8"
   d="M-167.1,14.6h4.5v-4.2h-4.5V14.6z M-167.1,8.2h4.5V-8.5h-4.5V8.2z"
   class="st0" />
	<polygon
   id="polygon10"
   points="-142.1,8.2 -148.8,-8.5 -152.9,-8.5 -159.6,8.2 -154.8,8.2 -150.8,-3 -146.8,8.2  "
   class="st0" />
	<path
   id="path12"
   d="M-123.6-1.4h-12.6c0.2-1.1,0.6-2,1.3-2.6s1.6-0.9,2.7-0.9c0.8,0,1.4,0.2,2.1,0.5c0.6,0.3,1.1,0.8,1.4,1.4h4.7   c-0.6-1.8-1.7-3.2-3.1-4.3c-1.5-1.1-3.2-1.6-5.1-1.6c-2.5,0-4.5,0.8-6.2,2.5c-1.6,1.7-2.5,3.8-2.5,6.3c0,1,0.1,1.9,0.4,2.8   c0.3,0.9,0.7,1.7,1.2,2.4s1.1,1.3,1.8,1.9c0.7,0.5,1.5,0.9,2.4,1.2s1.8,0.4,2.8,0.4c1.7,0,3.2-0.4,4.5-1.2s2.3-1.8,3-3.2   c0.7-1.3,1.1-2.8,1.1-4.4C-123.5-0.5-123.6-1-123.6-1.4 M-134.8,4c-0.7-0.6-1.2-1.3-1.4-2.3h8c-0.2,0.7-0.5,1.2-0.9,1.7   s-0.9,0.8-1.4,1.1c-0.5,0.2-1.1,0.4-1.8,0.4C-133.1,4.8-134.1,4.5-134.8,4"
   class="st0" />
	<path
   id="path14"
   d="M-109.8,8.3V4h-1.9c-1.3,0-2.2-0.3-2.7-0.9s-0.8-1.6-0.8-2.9v-8.7h-4.5V8.2h2.9l0.8-2c1.1,1.4,2.7,2.1,4.8,2.1   C-111.2,8.3-109.8,8.3-109.8,8.3z"
   class="st0" />
	<path
   id="path16"
   d="M-104.4-8.2c-1.1,0.5-1.9,1.2-2.5,2.1s-0.9,1.9-0.9,3.1h4.4c0-0.5,0.1-0.9,0.4-1.2c0.2-0.3,0.6-0.6,1-0.7   c0.4-0.2,0.9-0.2,1.4-0.2c0.4,0,0.8,0.1,1.2,0.2c0.4,0.1,0.6,0.3,0.9,0.6c0.2,0.3,0.3,0.6,0.3,0.9c0,0.5-0.3,0.9-0.8,1.1   c-0.5,0.2-1.3,0.5-2.4,0.6c-0.7,0.1-1.2,0.2-1.7,0.3c-0.4,0.1-1,0.3-1.6,0.5c-0.6,0.3-1.1,0.6-1.4,0.9c-0.4,0.3-0.7,0.8-0.9,1.4   c-0.3,0.6-0.4,1.2-0.4,2c0,1.6,0.6,2.8,1.8,3.8c1.2,1,2.8,1.5,4.9,1.5c2,0,3.6-0.5,4.8-1.5c1.2-1,1.8-2.4,1.8-4h-4.3   c0,1.3-0.8,2-2.5,2c-0.7,0-1.2-0.1-1.6-0.4s-0.6-0.7-0.6-1.2c0-0.2,0.1-0.4,0.2-0.6s0.2-0.3,0.4-0.4c0.2-0.1,0.4-0.2,0.7-0.3   c0.3-0.1,0.6-0.2,0.8-0.2l1-0.2c0.4-0.1,0.7-0.1,0.8-0.2s0.4-0.1,0.8-0.2s0.7-0.2,0.9-0.2c0.2-0.1,0.5-0.2,0.8-0.3   c0.3-0.1,0.6-0.3,0.8-0.4c0.2-0.1,0.4-0.3,0.6-0.5c0.3-0.2,0.5-0.4,0.6-0.6s0.3-0.5,0.4-0.7c0.1-0.3,0.2-0.6,0.3-0.9   c0-0.3,0.1-0.7,0.1-1.1c0-1.7-0.6-3.1-1.9-4.1s-3-1.5-5.1-1.5C-102.3-8.9-103.4-8.7-104.4-8.2"
   class="st0" />
	<path
   id="path18"
   d="M-89.9,14.6h4.5v-4.2h-4.5V14.6z M-89.9,8.2h4.5V-8.5h-4.5V8.2z"
   class="st0" />
	<path
   id="path20"
   d="M-70.3-4.5v-4h-3.2c-1.2,0-2.3,0.2-3.2,0.7c-0.9,0.5-1.6,1.2-2,2c-0.5,0.9-0.7,2-0.7,3.2v7.1h-3v1l6.6,7h0.8   V8.2h4.6V4.6h-4.5v-6.5c0-0.8,0.2-1.4,0.7-1.9c0.4-0.4,1.1-0.7,1.9-0.7H-70.3z"
   class="st0" />
	<path
   id="path22"
   d="M-50.7-1.4h-12.6c0.2-1.1,0.6-2,1.3-2.6s1.6-0.9,2.7-0.9c0.8,0,1.4,0.2,2.1,0.5c0.6,0.3,1.1,0.8,1.4,1.4h4.7   c-0.6-1.8-1.7-3.2-3.1-4.3c-1.5-1.1-3.2-1.6-5.1-1.6c-2.5,0-4.5,0.8-6.2,2.5c-1.5,1.7-2.4,3.8-2.4,6.3c0,1,0.1,1.9,0.4,2.8   s0.7,1.7,1.2,2.4s1.1,1.3,1.8,1.9c0.7,0.5,1.5,0.9,2.4,1.2s1.8,0.4,2.8,0.4c1.7,0,3.2-0.4,4.5-1.2s2.3-1.8,3-3.2   c0.7-1.3,1.1-2.8,1.1-4.4C-50.6-0.5-50.7-1-50.7-1.4 M-61.8,4c-0.7-0.6-1.2-1.3-1.4-2.3h8c-0.2,0.7-0.5,1.2-0.9,1.7   s-0.9,0.8-1.4,1.1c-0.5,0.2-1.1,0.4-1.8,0.4C-60.2,4.8-61.1,4.5-61.8,4 M-57.9,10h-3.4l1.7,4.7h4.8L-57.9,10z"
   class="st0" />
	<path
   id="path24"
   d="M-16.9,2.8c0-3.4-1.1-6.2-3.1-8.4c-2.1-2.2-4.7-3.3-7.9-3.3s-5.8,1.1-8,3.2c-2.1,2.1-3.2,4.8-3.2,8   s1,5.9,3.1,8.1c2.1,2.1,4.7,3.2,7.9,3.2c2.7,0,5-0.8,7.1-2.3c2-1.5,3.3-3.5,3.8-5.9H-22c-0.3,0.8-0.7,1.5-1.3,2   c-0.6,0.6-1.3,1-2,1.3C-26.2,9-27,9.1-27.9,9.1c-1.9,0-3.5-0.6-4.7-1.9s-1.8-2.9-1.8-4.9c0-1.3,0.3-2.5,0.8-3.5s1.3-1.8,2.3-2.4   s2.1-0.9,3.4-0.9c0.9,0,1.8,0.2,2.6,0.5c0.8,0.3,1.5,0.7,2.1,1.3s1,1.2,1.3,1.9h-6.5v3.6C-28.4,2.8-16.9,2.8-16.9,2.8z"
   class="st0" />
	<path
   id="path26"
   d="M-3.1,8.2V4H-5c-1.3,0-2.2-0.3-2.7-0.9s-0.8-1.6-0.8-2.9v-8.7H-13V8.2h2.9l0.8-2c1.1,1.4,2.7,2.1,4.8,2.1   L-3.1,8.2L-3.1,8.2z"
   class="st0" />
	<path
   id="path28"
   d="M15.7-1.4H3.1c0.2-1.1,0.6-2,1.3-2.6c0.8-0.6,1.7-0.9,2.8-0.9c0.8,0,1.4,0.2,2.1,0.5c0.6,0.3,1.1,0.8,1.4,1.4   h4.7c-0.6-1.8-1.7-3.2-3.1-4.3c-1.5-1.1-3.2-1.6-5.1-1.6c-2.5,0-4.5,0.8-6.1,2.5s-2.5,3.8-2.5,6.3c0,1,0.1,1.9,0.4,2.8   s0.7,1.7,1.2,2.4S1.3,6.4,2,7c0.7,0.5,1.5,0.9,2.4,1.2c0.9,0.3,1.8,0.4,2.8,0.4c1.7,0,3.2-0.4,4.5-1.2s2.3-1.8,3-3.2   c0.7-1.3,1.1-2.8,1.1-4.4C15.8-0.5,15.8-1,15.7-1.4 M4.7,4C4,3.4,3.5,2.6,3.3,1.7h8c-0.2,0.7-0.5,1.2-0.9,1.7C10,3.8,9.6,4.2,9,4.4   C8.5,4.7,7.9,4.8,7.2,4.8C6.2,4.8,5.4,4.5,4.7,4"
   class="st0" />
	<path
   id="path30"
   d="M33.6,6.7c1.1-1.3,1.6-3,1.6-5.1V-8.5h-4.5v9.4c0,2.5-1,3.7-2.9,3.7c-0.8,0-1.4-0.2-2-0.5s-1-0.9-1.3-1.5   c-0.2-0.7-0.4-1.4-0.4-2.3v-8.7h-4.5V8.2h3.1l0.9-2.1c0.3,0.4,0.7,0.7,1.1,1s0.8,0.6,1.3,0.8s1,0.4,1.5,0.5   c0.5,0.1,1.1,0.2,1.6,0.2C31,8.6,32.5,7.9,33.6,6.7"
   class="st0" />
	<path
   id="path32"
   d="M43.3-7.8C41.9-7,40.8-6,40.1-4.6c-0.8,1.3-1.2,2.8-1.2,4.5c0,2.5,0.9,4.6,2.6,6.3c1.7,1.7,3.9,2.5,6.4,2.5   c2.6,0,4.7-0.8,6.4-2.5s2.6-3.8,2.6-6.3S56-4.7,54.3-6.4c-1.7-1.7-3.8-2.5-6.4-2.5C46.2-8.9,44.7-8.6,43.3-7.8 M51.1-3.4   c0.8,0.9,1.2,1.9,1.2,3.3c0,1.3-0.4,2.4-1.2,3.3s-1.9,1.3-3.2,1.3s-2.4-0.4-3.2-1.3s-1.2-1.9-1.2-3.3c0-0.7,0.1-1.3,0.3-1.8   C44-2.5,44.3-3,44.7-3.3c0.4-0.5,0.9-0.9,1.4-1.1c0.5-0.2,1.1-0.3,1.8-0.3C49.2-4.7,50.2-4.3,51.1-3.4"
   class="st0" />
	<path
   id="path34"
   d="M76,6.1c1.7-1.7,2.5-3.8,2.5-6.3S77.7-4.8,76-6.5S72.3-9,69.7-9c-2,0-3.7,0.6-5.2,1.8L64-8.6h-3.3V14h4.5V7.3   c1.3,0.9,2.9,1.4,4.6,1.4C72.3,8.6,74.4,7.8,76,6.1 M72.6-3.4c0.9,0.9,1.3,1.9,1.3,3.2c0,0.9-0.2,1.6-0.6,2.3s-0.9,1.2-1.6,1.6   s-1.5,0.6-2.3,0.6s-1.6-0.1-2.3-0.5s-1.2-0.9-1.6-1.6s-0.6-1.5-0.6-2.3c0-1.3,0.4-2.4,1.3-3.2c0.9-0.9,1.9-1.3,3.2-1.3   C70.7-4.7,71.8-4.3,72.6-3.4"
   class="st0" />
	<rect
   id="rect36"
   height="22.6"
   width="4.5"
   class="st0"
   y="-8.5"
   x="82.4" />
	<path
   id="path38"
   d="M107.8-1.4H95.3c0.2-1.1,0.6-2,1.3-2.6c0.7-0.6,1.6-0.9,2.7-0.9c0.8,0,1.4,0.2,2.1,0.5   c0.6,0.3,1.1,0.8,1.4,1.4h4.7c-0.6-1.8-1.7-3.2-3.1-4.3c-1.5-1.1-3.2-1.6-5.1-1.6c-2.5,0-4.5,0.8-6.2,2.5c-1.6,1.7-2.5,3.8-2.5,6.3   c0,1,0.1,1.9,0.4,2.8s0.7,1.7,1.2,2.4S93.3,6.4,94,7c0.7,0.5,1.5,0.9,2.4,1.2s1.8,0.4,2.8,0.4c1.7,0,3.2-0.4,4.5-1.2s2.3-1.8,3-3.2   c0.7-1.3,1.1-2.8,1.1-4.4C107.9-0.5,107.9-1,107.8-1.4 M96.8,4c-0.7-0.6-1.2-1.3-1.4-2.3h8c-0.2,0.7-0.5,1.2-0.9,1.7   s-0.9,0.8-1.4,1.1c-0.5,0.2-1.1,0.4-1.8,0.4C98.3,4.8,97.5,4.5,96.8,4"
   class="st0" />
	<rect
   id="rect40"
   height="22.6"
   width="4.5"
   class="st0"
   y="-8.5"
   x="146.3" />
	<path
   id="path42"
   d="M170.9,6.1c1.7-1.7,2.5-3.8,2.5-6.3s-0.8-4.6-2.5-6.3S167.3-9,164.8-9c-1.7,0-3.2,0.5-4.6,1.4v-6.9h-4.5V8.2h3   l0.8-1.5c1.5,1.3,3.3,2,5.3,2C167.3,8.6,169.4,7.8,170.9,6.1 M167.6-3.4c0.9,0.9,1.3,2,1.3,3.3c0,0.9-0.2,1.6-0.6,2.3   c-0.4,0.7-0.9,1.2-1.6,1.6c-0.7,0.4-1.5,0.6-2.3,0.6c-0.9,0-1.6-0.2-2.3-0.6s-1.2-0.9-1.6-1.6s-0.6-1.5-0.6-2.3   c0-1.3,0.4-2.4,1.3-3.3c0.9-0.9,1.9-1.3,3.2-1.3C165.7-4.7,166.8-4.3,167.6-3.4"
   class="st0" />
	<path
   id="path44"
   d="M193.4-1.4h-12.6c0.2-1.1,0.6-2,1.3-2.6s1.6-0.9,2.7-0.9c0.8,0,1.4,0.2,2.1,0.5c0.6,0.3,1.1,0.8,1.4,1.4h4.7   c-0.6-1.8-1.7-3.2-3.1-4.3c-1.5-1.1-3.2-1.6-5.1-1.6c-2.5,0-4.5,0.8-6.2,2.5c-1.6,1.7-2.5,3.8-2.5,6.3c0,1,0.1,1.9,0.4,2.8   c0.3,0.9,0.7,1.7,1.2,2.4s1.1,1.3,1.8,1.9c0.7,0.5,1.5,0.9,2.4,1.2s1.8,0.4,2.8,0.4c1.7,0,3.2-0.4,4.5-1.2s2.3-1.8,3-3.2   c0.7-1.3,1.1-2.8,1.1-4.4C193.4-0.5,193.4-1,193.4-1.4 M182.3,4c-0.7-0.6-1.2-1.3-1.4-2.3h8c-0.2,0.7-0.5,1.2-0.9,1.7   s-0.9,0.8-1.4,1.1c-0.5,0.2-1.1,0.4-1.8,0.4C183.9,4.8,182.9,4.5,182.3,4"
   class="st0" />
	<path
   id="path46"
   d="M199.4-8.2c-1.1,0.5-1.9,1.2-2.5,2.1s-0.9,1.9-0.9,3.1h4.4c0-0.5,0.1-0.9,0.4-1.2c0.2-0.3,0.6-0.6,1-0.7   c0.4-0.2,0.9-0.2,1.4-0.2c0.4,0,0.8,0.1,1.2,0.2c0.3,0.1,0.6,0.3,0.9,0.6c0.2,0.3,0.3,0.6,0.3,0.9c0,0.5-0.3,0.9-0.8,1.1   c-0.5,0.2-1.3,0.5-2.4,0.6c-0.7,0.1-1.2,0.2-1.7,0.3c-0.4,0.1-1,0.3-1.6,0.5c-0.6,0.3-1.1,0.5-1.4,0.9c-0.4,0.3-0.7,0.8-0.9,1.4   c-0.3,0.6-0.4,1.2-0.4,2c0,1.6,0.6,2.8,1.8,3.8s2.9,1.5,4.9,1.5s3.6-0.5,4.8-1.5s1.8-2.4,1.8-4h-4.3c0,1.3-0.8,2-2.5,2   c-0.7,0-1.2-0.1-1.6-0.4c-0.4-0.3-0.6-0.7-0.6-1.2c0-0.2,0.1-0.4,0.2-0.6c0.1-0.2,0.2-0.3,0.4-0.4c0.2-0.1,0.4-0.2,0.7-0.3   s0.6-0.2,0.8-0.2l1-0.2c0.4-0.1,0.7-0.1,0.8-0.2c0.2,0,0.4-0.1,0.8-0.2c0.4-0.1,0.7-0.2,0.9-0.2c0.2-0.1,0.5-0.2,0.8-0.3   c0.3-0.1,0.6-0.3,0.8-0.4s0.4-0.3,0.6-0.5c0.3-0.2,0.5-0.4,0.6-0.6s0.3-0.5,0.4-0.7c0.1-0.3,0.2-0.6,0.3-0.9s0.1-0.7,0.1-1.1   c0-1.7-0.6-3.1-1.9-4.1c-1.3-1-3-1.5-5.1-1.5C201.8-8.9,200.6-8.7,199.4-8.2"
   class="st0" />
	<polygon
   id="polygon48"
   points="130.7,4.5 138.1,-8.5 143.4,-8.5 130.7,13.6 118,-8.5 123.2,-8.5  "
   class="st0" />
	<polygon
   id="polygon50"
   points="130.7,-5.3 125.3,-14.7 136.1,-14.7  "
   class="st1" />
</symbol>
<g
   id="Calque_1_1_">
</g>
<g
   id="Mode_Isolation">
</g>
<g
   id="svg2">
	<g
   id="g137">
		<g
   id="g117">
			<g
   id="g115">
				<g
   id="g101">
					<g
   id="g99">
						<path
   id="path55"
   d="M86.6,17.5l-2.4,2.9c-1.2-1.4-3-2.4-4.7-2.4c-3.1,0-5.6,2.4-5.6,5.6s2.4,5.6,5.6,5.6        c1.7,0,3.4-0.8,4.7-2.2l2.4,2.7c-1.9,1.9-4.7,3.3-7.4,3.3c-5.4,0-9.5-4-9.5-9.3c0-5.2,4.2-9.2,9.7-9.2        C82,14.5,84.8,15.7,86.6,17.5z"
   class="st2" />
						<path
   id="path57"
   d="M95.6,34.3c-1,2.4-2.7,3.6-5.1,3.6c-1.4,0-2.7-0.4-3.7-1.3l1.7-2.9c0.6,0.5,1.2,0.7,1.8,0.7        c0.8,0,1.4-0.4,1.8-1.2l0.4-0.7l-5.8-13.6h4.1l3.6,9.7l3.3-9.7h4L95.6,34.3z"
   class="st2" />
						<path
   id="path59"
   d="M118.2,25.8c0,4.2-2.5,7-6.5,7c-1.9,0-3.5-0.7-4.5-2.2v2.1h-4V13.4h4v7.4c1-1.4,2.5-2.2,4.5-2.2        C115.6,18.7,118.2,21.6,118.2,25.8z M114.1,25.7c0-2.2-1.4-3.9-3.5-3.9s-3.5,1.6-3.5,3.9s1.4,3.9,3.5,3.9        C112.8,29.6,114.1,28,114.1,25.7z"
   class="st2" />
						<path
   id="path61"
   d="M133.4,27h-10c0.5,1.8,1.8,2.8,3.6,2.8c1.3,0,2.5-0.5,3.5-1.4l2.1,2.2c-1.4,1.6-3.5,2.4-5.9,2.4        c-4.5,0-7.2-2.9-7.2-7.1c0-4.3,2.9-7.1,7.2-7.1C131.5,18.7,133.8,22,133.4,27z M129.7,24.6c0-1.8-1.2-3-3.1-3        c-1.8,0-3,1.2-3.3,3H129.7z"
   class="st2" />
						<path
   id="path63"
   d="M139.8,21.4c1-1.7,2.5-2.7,4.6-2.7v3.7c-2.9-0.2-4.6,1.3-4.6,3.6v6.8h-4v-14h4V21.4z"
   class="st2" />
						<path
   id="path65"
   d="M156.5,20.1l-1.3,2.8c-1.6-0.8-3.1-1.3-4.2-1.3c-1,0-1.6,0.4-1.6,1.1c0,2.1,7.4,1.1,7.4,5.9        c0,2.9-2.5,4.3-5.7,4.3c-2.3,0-4.5-0.7-6-1.9l1.3-2.7c1.4,1.1,3.4,1.7,4.8,1.7c1,0,1.8-0.4,1.8-1.1c0-2.2-7.2-1.1-7.2-5.9        c0-2.9,2.4-4.3,5.6-4.3C153,18.6,154.9,19.2,156.5,20.1z"
   class="st2" />
						<path
   id="path67"
   d="M171.9,27h-10c0.5,1.8,1.8,2.8,3.6,2.8c1.3,0,2.5-0.5,3.5-1.4l2.1,2.2c-1.4,1.6-3.5,2.4-5.9,2.4        c-4.5,0-7.2-2.9-7.2-7.1c0-4.3,2.9-7.1,7.2-7.1C169.9,18.7,172.2,22,171.9,27z M168.2,24.6c0-1.8-1.2-3-3.1-3        c-1.8,0-3,1.2-3.3,3H168.2z"
   class="st2" />
						<path
   id="path69"
   d="M186.3,21.6l-2.7,1.9c-0.7-1-1.8-1.4-3.1-1.4c-1.9,0-3.4,1.4-3.4,3.7s1.3,3.7,3.4,3.7        c1.4,0,2.5-0.6,3.3-1.7l2.8,1.8c-1.2,1.9-3.4,3.1-6.2,3.1c-4.2,0-7.1-2.9-7.1-7.1s2.9-7.1,7.1-7.1        C182.9,18.7,185.1,19.8,186.3,21.6z"
   class="st2" />
						<path
   id="path71"
   d="M201.9,32.7h-4v-2.4c-1,1.8-2.5,2.7-4.7,2.7c-3.1,0-5.1-2.1-5.1-5.3v-8.8h4v7.6c0,1.8,1,2.8,2.7,2.8        c1.9,0,3.1-1.6,3.1-3.5v-6.9h4L201.9,32.7L201.9,32.7z"
   class="st2" />
						<path
   id="path73"
   d="M209.5,21.4c1-1.7,2.5-2.7,4.6-2.7v3.7c-2.9-0.2-4.6,1.3-4.6,3.6v6.8h-4v-14h4V21.4z"
   class="st2" />
						<path
   id="path75"
   d="M220.2,14.8c0,1.3-0.8,2.2-2.2,2.2c-1.3,0-2.2-1-2.2-2.2c0-1.3,0.8-2.2,2.2-2.2        C219.2,12.5,220.2,13.5,220.2,14.8z M216,32.7V18.8h4v14h-4V32.7z"
   class="st2" />
						<path
   id="path77"
   d="M232.3,32c-1.1,0.6-2.3,1-3.6,1c-2.5,0-4.3-1.4-4.3-4.3v-6.5h-1.9v-2.8h1.9v-3.9h4v3.9h3.7v2.8h-3.7v5.8        c0,1.2,0.5,1.7,1.3,1.6c0.5,0,1.1-0.2,1.8-0.5L232.3,32z"
   class="st2" />
						<path
   id="path79"
   d="M241.2,34.3c-1,2.4-2.7,3.6-5.1,3.6c-1.4,0-2.7-0.4-3.7-1.3l1.7-2.9c0.6,0.5,1.2,0.7,1.8,0.7        c0.8,0,1.4-0.4,1.8-1.2l0.4-0.7l-5.8-13.6h4.1l3.6,9.7l3.3-9.7h4L241.2,34.3z"
   class="st2" />
						<path
   id="path81"
   d="M254.8,32.7V14.6h4.1v18.2h-4.1V32.7z"
   class="st2" />
						<path
   id="path83"
   d="M276.5,24v8.8h-4v-7.6c0-1.8-1.1-2.9-2.8-2.9c-2.1,0-3.1,1.6-3.1,3.6v6.9h-4v-14h4v2.4        c1-1.7,2.7-2.5,4.8-2.7C274.5,18.7,276.5,20.8,276.5,24z"
   class="st2" />
						<path
   id="path85"
   d="M289.8,20.1l-1.3,2.8c-1.6-0.8-3.1-1.3-4.2-1.3c-1,0-1.6,0.4-1.6,1.1c0,2.1,7.4,1.1,7.4,5.9        c0,2.9-2.5,4.3-5.7,4.3c-2.3,0-4.5-0.7-6-1.9l1.3-2.7c1.4,1.1,3.4,1.7,4.8,1.7c1,0,1.8-0.4,1.8-1.1c0-2.2-7.2-1.1-7.2-5.9        c0-2.9,2.4-4.3,5.6-4.3C286.3,18.6,288.4,19.2,289.8,20.1z"
   class="st2" />
						<path
   id="path87"
   d="M301,32c-1.1,0.6-2.3,1-3.6,1c-2.5,0-4.3-1.4-4.3-4.3v-6.5h-1.9v-2.8h1.9v-3.9h4v3.9h3.7v2.8h-3.7v5.8        c0,1.2,0.5,1.7,1.3,1.6c0.5,0,1.1-0.2,1.8-0.5L301,32z"
   class="st2" />
						<path
   id="path89"
   d="M307.3,14.8c0,1.3-0.8,2.2-2.2,2.2s-2.2-1-2.2-2.2c0-1.3,0.8-2.2,2.2-2.2        C306.5,12.5,307.3,13.5,307.3,14.8z M303.2,32.7V18.8h4v14h-4V32.7z"
   class="st2" />
						<path
   id="path91"
   d="M319.4,32c-1.1,0.6-2.3,1-3.6,1c-2.5,0-4.3-1.4-4.3-4.3v-6.5h-1.9v-2.8h1.9v-3.9h4v3.9h3.7v2.8h-3.7v5.8        c0,1.2,0.5,1.7,1.3,1.6c0.5,0,1.1-0.2,1.8-0.5L319.4,32z"
   class="st2" />
						<path
   id="path93"
   d="M334.8,32.7h-4v-2.4c-1,1.8-2.5,2.7-4.7,2.7c-3.1,0-5.1-2.1-5.1-5.3v-8.8h4v7.6c0,1.8,1,2.8,2.7,2.8        c1.9,0,3.1-1.6,3.1-3.5v-6.9h4V32.7z"
   class="st2" />
						<path
   id="path95"
   d="M347,32c-1.1,0.6-2.3,1-3.6,1c-2.5,0-4.3-1.4-4.3-4.3v-6.5h-1.9v-2.8h1.9v-3.9h4v3.9h3.7v2.8H343v5.8        c0,1.2,0.5,1.7,1.3,1.6c0.5,0,1.1-0.2,1.8-0.5L347,32z"
   class="st2" />
						<path
   id="path97"
   d="M362,27h-10c0.5,1.8,1.8,2.8,3.6,2.8c1.3,0,2.5-0.5,3.5-1.4l2.1,2.2c-1.4,1.6-3.5,2.4-5.9,2.4        c-4.5,0-7.2-2.9-7.2-7.1c0-4.3,2.9-7.1,7.2-7.1C360,18.7,362.3,22,362,27z M358.2,24.6c0-1.8-1.2-3-3.1-3c-1.8,0-3,1.2-3.3,3        H358.2z"
   class="st2" />
					</g>
				</g>
				<g
   id="g113">
					<defs
   id="defs104">
						<rect
   height="12.4"
   width="176.9"
   y="43.7"
   x="70.3"
   id="SVGID_1_" />
					</defs>
					<clipPath
   id="SVGID_2_">
						<use
   id="use106"
   style="overflow:visible;"
   xlink:href="#SVGID_1_" />
					</clipPath>
					<g
   id="g111"
   clip-path="url(#SVGID_2_)"
   style="clip-path:url(#SVGID_2_);">
						
							<use
   id="use109"
   style="overflow:visible;"
   transform="matrix(0.4211 0 0 -0.4211 158.7435 49.8887)"
   y="-14.7"
   x="-209.9"
   height="29.4"
   width="419.9"
   xlink:href="#logo_uga_long" />
					</g>
				</g>
			</g>
		</g>
		<g
   id="g135">
			<path
   id="path119"
   d="M47.9,8.1c-4.8,0-13.4-1.2-22.1-8.1c-6.9,6.9-16,8.1-21.4,8.1C1.7,8.1,0,7.7,0,7.7v4.6h4.9l7.6,8h9.7     c0.4-1.7,1.8-2.9,3.6-2.9c2.1,0,3.6,1.7,3.6,3.6c0,1.3-0.7,2.5-1.9,3.1c1.3,0.8,2.3,2.5,2.3,4.5V31h-8.1v-2.4     c0-1.9,1-3.7,2.3-4.5c-0.8-0.5-1.6-1.3-1.8-2.4H11.9l-7.6-8H0v5.1h2.3l15.9,15.6h20.6c0.4-1.7,1.8-2.9,3.6-2.9     c2.1,0,3.6,1.7,3.6,3.6c0,2.1-1.7,3.6-3.6,3.6c-1.8,0-3.3-1.2-3.6-2.9H17.6L1.7,20.5H0v2.1C0,34.4,3.7,42.8,8.3,49h7.5l4.3-6.2     h-4c-0.2,1.8-1.8,3.3-3.6,3.3c-2.1,0-3.6-1.7-3.6-3.6c0-2.1,1.7-3.6,3.6-3.6c1.7,0,3,1.1,3.5,2.7h11.8c0.5-1.4,1.8-2.7,3.5-2.7     c2.1,0,3.6,1.7,3.6,3.6c0,1.3-0.7,2.5-1.9,3.1c1.3,0.8,2.3,2.5,2.3,4.5v2.4H27v-2.4c0-1.9,1-3.7,2.3-4.5c-1-0.6-1.7-1.6-1.8-2.8     h-5.7l-5.3,7.7h-7c7.4,8.7,16.3,11.6,16.3,11.6s25.9-8.4,25.9-39.6V7.7C51.8,7.7,50.3,8.1,47.9,8.1z"
   class="st3" />
			<path
   id="path121"
   d="M11.9,21.8h10.3c0.2,1.1,0.8,1.9,1.8,2.4c-1.3,0.8-2.3,2.5-2.3,4.5v2.4H30v-2.4c0-1.9-1-3.7-2.3-4.5     c1.1-0.6,1.9-1.8,1.9-3.1c0-2.1-1.7-3.6-3.6-3.6c-1.8,0-3.3,1.2-3.6,2.9h-9.7l-7.6-8H0V14h4.3L11.9,21.8z M25.9,18.8     c1.3,0,2.3,1.1,2.3,2.3c0,1.3-1.1,2.3-2.3,2.3c-1.3,0-2.3-1.1-2.3-2.3C23.5,19.9,24.6,18.8,25.9,18.8z"
   class="st4" />
			<path
   id="path123"
   d="M17.6,36.1h21.2c0.4,1.7,1.8,2.9,3.6,2.9c2.1,0,3.6-1.7,3.6-3.6c0-2.1-1.7-3.6-3.6-3.6     c-1.8,0-3.3,1.2-3.6,2.9H18.3l-16-15.7H0v1.6h1.7L17.6,36.1z M42.6,32.8c1.3,0,2.3,1.1,2.3,2.3c0,1.3-1.1,2.3-2.3,2.3     c-1.3,0-2.3-1.1-2.3-2.3C40.3,33.9,41.3,32.8,42.6,32.8z"
   class="st4" />
			<path
   id="path125"
   d="M22.1,42.8h5.7c0.1,1.2,0.8,2.2,1.8,2.8c-1.3,0.8-2.3,2.5-2.3,4.5v2.4h8.3v-2.4c0-1.9-1-3.7-2.3-4.5     c1.1-0.6,1.9-1.8,1.9-3.1c0-2.1-1.7-3.6-3.6-3.6c-1.7,0-3,1.1-3.5,2.7H16.3c-0.5-1.4-1.8-2.7-3.5-2.7c-2.1,0-3.6,1.7-3.6,3.6     c0,2.1,1.7,3.6,3.6,3.6s3.4-1.4,3.6-3.3h4L16,49H8.3c0.4,0.5,0.8,1.1,1.2,1.6h7.1L22.1,42.8z M31.4,40.1c1.3,0,2.3,1.1,2.3,2.3     c0,1.3-1.1,2.3-2.3,2.3c-1.3,0-2.3-1.1-2.3-2.3C29.1,41,30.2,40.1,31.4,40.1z M12.7,44.6c-1.3,0-2.3-1.1-2.3-2.3     c0-1.3,1.1-2.3,2.3-2.3c1.3,0,2.3,1.1,2.3,2.3S13.9,44.6,12.7,44.6z"
   class="st4" />
			<path
   id="path127"
   d="M25.9,23.5c1.3,0,2.3-1.1,2.3-2.3c0-1.3-1.1-2.3-2.3-2.3c-1.3,0-2.3,1.1-2.3,2.3     C23.5,22.4,24.6,23.5,25.9,23.5z"
   class="st5" />
			<path
   id="path129"
   d="M42.6,37.5c1.3,0,2.3-1.1,2.3-2.3c0-1.3-1.1-2.3-2.3-2.3c-1.3,0-2.3,1.1-2.3,2.3     C40.3,36.4,41.3,37.5,42.6,37.5z"
   class="st5" />
			<path
   id="path131"
   d="M12.7,40.1c-1.3,0-2.3,1.1-2.3,2.3c0,1.3,1.1,2.3,2.3,2.3c1.3,0,2.3-1.1,2.3-2.3C15,41,13.9,40.1,12.7,40.1z     "
   class="st5" />
			<path
   id="path133"
   d="M31.4,44.6c1.3,0,2.3-1.1,2.3-2.3c0-1.3-1.1-2.3-2.3-2.3c-1.3,0-2.3,1.1-2.3,2.3S30.2,44.6,31.4,44.6z"
   class="st5" />
		</g>
	</g>
</g>
</svg>